# xmcd CD database file
#
# Track frame offsets:
#	150
#	36228
#	87883
#	118777
#	147962
#	194435
#	219898
#	236132
#
# Disc length: 3308 seconds
#
# Revision: 0
# Processed by: cddbd v1.5PL3 Copyright (c) Steve Scherf et al.
# Submitted via: CDex 1.50
#
DISCID=700cea08
DTITLE=Barry Elmes - Different Voices (disk 2)
DYEAR=1997
DGENRE=Jazz
TTITLE0=The Getaway
TTITLE1=In Your Own Sweet Way
TTITLE2=The Blue Room
TTITLE3=Apache (Love Theme)
TTITLE4=C.P. Blues
TTITLE5=Easy To Love
TTITLE6=Fleur Du Cap (Reprise) 
TTITLE7=Voices.exe
EXTD=YEAR: 1997
EXTT0=
EXTT1=
EXTT2=
EXTT3=
EXTT4=
EXTT5=
EXTT6=
EXTT7=
PLAYORDER=
